<svg width="49" height="49" viewBox="0 0 49 49" fill="none" xmlns="http://www.w3.org/2000/svg">
<rect x="0.5" y="0.5" width="48" height="48" rx="24" fill="#0050FF"/>
<path fill-rule="evenodd" clip-rule="evenodd" d="M34.5843 34.4433C34.1645 28.2329 35.8919 22.067 39.477 16.9785H32.1832C30.4977 19.9611 29.5489 23.303 29.4159 26.7263C27.9622 22.9067 27.5353 18.7728 28.1777 14.7368H22.2965C20.1092 18.3511 18.9479 22.493 18.9371 26.7177C17.359 22.1472 17.0139 17.2414 17.9368 12.495H10.7798C9.55766 20.6405 11.5012 29.1683 16.6092 36.095H23.8277C23.168 32.8363 23.2069 29.4747 23.9418 26.2321C24.54 29.1643 25.701 31.9528 27.3604 34.4433H34.5854H34.5843Z" fill="white"/>
</svg>
